<?xml version="1.0" encoding="UTF-8"?>
<svg xmlns="http://www.w3.org/2000/svg" xmlns:xlink="http://www.w3.org/1999/xlink" width="128px" height="128px" viewBox="0 0 128 128" version="1.1">
<g id="surface1">
<path style="fill-rule:nonzero;fill:rgb(100%,99.607843%,91.372549%);fill-opacity:1;stroke-width:30;stroke-linecap:butt;stroke-linejoin:miter;stroke:rgb(0%,0%,0%);stroke-opacity:1;stroke-miterlimit:4;" d="M 774.497681 450 C 774.497681 270.780304 629.219696 125.502319 450 125.502319 C 270.780304 125.502319 125.502319 270.780304 125.502319 450 C 125.502319 629.219696 270.780304 774.497681 450 774.497681 C 629.219696 774.497681 774.497681 629.219696 774.497681 450 Z M 774.497681 450 " transform="matrix(0.188513,0,0,0.188513,-20.830633,-20.830633)"/>
<path style=" stroke:none;fill-rule:nonzero;fill:rgb(99.607843%,72.156863%,43.921569%);fill-opacity:1;" d="M 96.789062 73.175781 C 96.789062 73.175781 93.988281 71.136719 91.46875 68.453125 C 88.949219 65.769531 86.941406 62.726562 86.941406 62.726562 C 86.941406 62.726562 87.546875 52.78125 86.808594 49.457031 C 86.070312 46.128906 84.792969 44.757812 84.792969 44.757812 C 84.792969 44.757812 82.941406 38.816406 79.878906 36.480469 C 76.820312 34.144531 67.878906 31.269531 67.878906 31.269531 L 38.621094 42.953125 C 38.621094 42.953125 33.964844 45.867188 29.773438 54.191406 C 25.578125 62.519531 26.640625 68.976562 26.640625 68.976562 L 18.882812 83.992188 L 16.796875 98.324219 C 16.796875 98.324219 20.335938 103.230469 23.136719 105.8125 C 25.941406 108.390625 33.488281 113.402344 33.488281 113.402344 C 33.488281 113.402344 33.171875 106.277344 39.566406 98.84375 C 45.960938 91.414062 51.417969 90.007812 51.417969 90.007812 C 51.417969 90.007812 47.378906 90.007812 41.601562 83.015625 C 39.246094 80.164062 35.984375 75.429688 36.636719 72.320312 C 39.09375 60.644531 60.546875 62.847656 68.289062 66.746094 C 76.035156 70.644531 77.265625 71.847656 80.414062 73.570312 C 83.558594 75.296875 88.261719 77.292969 88.261719 77.292969 Z M 96.789062 73.175781 "/>
<path style=" stroke:none;fill-rule:nonzero;fill:rgb(100%,99.607843%,91.764706%);fill-opacity:1;" d="M 75.667969 38.492188 C 75.667969 38.492188 76.976562 41.300781 78.136719 41.425781 C 80.5625 41.691406 82.144531 39.539062 82.144531 39.539062 C 82.144531 39.539062 83.449219 37.261719 84.808594 32.386719 C 86.167969 27.511719 85.042969 25.496094 85.042969 25.496094 C 85.042969 25.496094 81.699219 27.144531 78.621094 31.269531 C 75.546875 35.398438 75.667969 38.492188 75.667969 38.492188 Z M 75.667969 38.492188 "/>
<path style=" stroke:none;fill-rule:nonzero;fill:rgb(100%,99.607843%,91.764706%);fill-opacity:1;" d="M 61.824219 22.300781 C 64.214844 34.988281 56.003906 47.253906 43.363281 49.886719 "/>
<path style="fill-rule:nonzero;fill:rgb(0%,0%,0%);fill-opacity:1;stroke-width:1;stroke-linecap:butt;stroke-linejoin:miter;stroke:rgb(0%,0%,0%);stroke-opacity:1;stroke-miterlimit:4;" d="M 594.92572 167.028076 C 595.132935 174.840057 594.076141 184.102539 594.78067 195.747986 C 595.547363 208.388062 595.733856 221.21463 595.713135 229.834747 C 595.713135 238.724243 594.677063 247.116425 593.205841 255.881592 C 589.227325 279.628357 579.115265 301.9039 571.696991 321.299164 C 567.283325 332.841003 560.507416 347.926208 560.507416 347.926208 C 560.507416 347.926208 560.113708 347.615387 550.996277 335.596954 C 541.858124 323.5578 546.56189 315.580048 548.861969 310.71051 C 552.63327 302.712036 560.238037 284.166351 561.978638 271.29834 C 563.719238 258.430328 563.035431 249.457947 561.522766 246.163239 C 556.984772 247.323639 537.941772 266.760345 526.254883 281.451843 C 514.547272 296.143341 511.977814 314.875519 511.977814 314.875519 C 511.977814 314.875519 497.286316 311.456482 488.68692 304.701294 C 479.714539 297.676727 475.238708 293.200897 473.104401 282.529358 C 471.239471 273.225433 477.269409 264.335938 482.076782 258.575378 C 517.178894 216.386536 538.397644 202.295959 594.92572 167.028076 " transform="matrix(0.188513,0,0,0.188513,-20.830633,-20.830633)"/>
<path style="fill-rule:nonzero;fill:rgb(0%,0%,0%);fill-opacity:1;stroke-width:1;stroke-linecap:butt;stroke-linejoin:miter;stroke:rgb(0%,0%,0%);stroke-opacity:1;stroke-miterlimit:4;" d="M 451.699158 172.954407 C 469.519592 213.775635 473.208008 259.404236 462.184204 302.566986 C 462.184204 302.566986 460.567932 307.726624 456.920959 314.440369 C 453.253265 321.174835 452.382965 322.563171 448.673828 326.790344 C 444.94397 330.996796 437.898682 335.161804 431.060608 335.24469 C 424.222534 335.348297 418.088989 329.857117 417.425903 324.510986 C 416.410553 316.305298 424.139648 310.482574 425.009949 297.531677 C 425.880249 284.58078 424.222534 269.930725 422.502655 266.760345 C 418.047546 268.190125 403.045227 283.378937 387.069 307.312195 C 371.092773 331.266174 365.684479 350.868652 364.337585 355.095825 C 363.011414 359.322998 357.748169 383.795013 330.167938 379.257019 C 302.608429 374.719025 315.103455 345.563965 315.103455 345.563965 C 343.864807 274.924591 385.204071 213.257599 451.699158 172.954407 " transform="matrix(0.188513,0,0,0.188513,-20.830633,-20.830633)"/>
<path style="fill-rule:nonzero;fill:rgb(0%,0%,0%);fill-opacity:1;stroke-width:1;stroke-linecap:butt;stroke-linejoin:miter;stroke:rgb(0%,0%,0%);stroke-opacity:1;stroke-miterlimit:4;" d="M 449.502686 397.968475 C 443.597076 398.03064 437.73291 398.776611 431.993073 400.227112 C 453.253265 428.553314 485.516541 446.53952 520.784424 449.7099 C 510.713806 418.855682 481.952454 397.989197 449.502686 397.968475 Z M 449.502686 397.968475 " transform="matrix(0.188513,0,0,0.188513,-20.830633,-20.830633)"/>
<path style="fill-rule:nonzero;fill:rgb(0%,0%,0%);fill-opacity:1;stroke-width:1;stroke-linecap:butt;stroke-linejoin:miter;stroke:rgb(0%,0%,0%);stroke-opacity:1;stroke-miterlimit:4;" d="M 608.809082 718.591248 C 608.809082 718.591248 589.496704 722.09317 546.396118 692.461517 C 518.214966 673.086975 512.827393 632.16214 512.827393 632.16214 C 512.827393 632.16214 484.770569 643.144501 466.100555 687.467651 C 448.445892 729.428558 455.739838 762.624298 455.739838 762.624298 C 455.739838 762.624298 502.363068 759.516083 536.118286 750.274323 C 571.842041 740.493805 608.809082 718.591248 608.809082 718.591248 Z M 608.809082 718.591248 " transform="matrix(0.188513,0,0,0.188513,-20.830633,-20.830633)"/>
<path style="fill-rule:nonzero;fill:rgb(0%,0%,0%);fill-opacity:1;stroke-width:1;stroke-linecap:round;stroke-linejoin:miter;stroke:rgb(0%,0%,0%);stroke-opacity:1;stroke-miterlimit:4;" d="M 608.850525 491.71225 C 612.911926 491.940186 618.817535 494.737579 622.671722 497.34848 C 626.525909 499.93866 634.627991 506.258698 635.042419 512.392242 C 635.456848 518.505066 631.934204 522.276367 628.183624 526.93869 C 624.412323 531.601013 616.807556 537.75528 613.554291 540.158966 C 610.301025 542.562653 607.109924 542.562653 601.680908 545.587982 C 596.251892 548.59259 587.383118 534.647064 583.922638 530.150513 C 580.462158 525.63324 578.970215 520.846588 578.721558 516.495087 C 578.493622 512.143585 579.550415 504.020782 588.149811 498.032288 C 596.728485 492.043793 604.809845 491.463593 608.850525 491.71225 Z M 608.850525 491.71225 " transform="matrix(0.188513,0,0,0.188513,-20.830633,-20.830633)"/>
<path style="fill:none;stroke-width:20;stroke-linecap:round;stroke-linejoin:miter;stroke:rgb(0%,0%,0%);stroke-opacity:1;stroke-miterlimit:4;" d="M 146.366387 636.045504 C 172.368336 551.873158 231.448293 481.8646 310.047209 442.049269 " transform="matrix(0.188162,-0.011486,0.011486,0.188162,-20.830633,-20.830633)"/>
<path style="fill-rule:nonzero;fill:rgb(0%,0%,0%);fill-opacity:1;stroke-width:1;stroke-linecap:round;stroke-linejoin:miter;stroke:rgb(0%,0%,0%);stroke-opacity:1;stroke-miterlimit:4;" d="M 223.597595 575.634064 C 210.605255 583.549652 205.424896 593.019348 205.424896 593.019348 L 190.049591 620.868958 L 217.629822 655.432312 C 217.629822 655.432312 205.673553 639.829071 209.403412 627.499817 C 213.13327 615.170563 215.14325 608.539703 230.45639 595.381592 C 245.769531 582.202759 259.570007 572.774506 302.566986 558.891144 C 345.584686 544.987061 375.920868 540.718445 408.204865 536.739929 C 440.488861 532.761414 461.562561 534.543457 483.817383 537.921051 C 506.051483 541.298645 529.922577 560.465973 547.121368 561.274109 C 564.32016 562.082245 568.920319 560.818237 575.592621 558.911865 C 582.264923 556.984772 585.062317 558.020844 590.408447 553.980164 C 594.884277 550.581848 601.017822 546.002411 601.017822 546.002411 L 580.565765 524.535004 C 580.565765 524.535004 583.031616 530.005463 583.653259 532.782135 C 584.274902 535.538086 583.860474 537.879608 582.596466 539.309387 C 580.959473 541.153595 578.265686 542.894196 573.831299 544.386139 C 570.868134 545.380768 565.439117 547.100647 558.020844 546.582611 C 550.60257 546.085297 541.174316 544.054596 536.532715 542.313995 C 531.870392 540.594116 527.974762 539.868866 515.313965 534.377686 C 507.895691 531.145142 495.587158 526.64859 481.869568 523.830475 C 471.488129 521.716888 446.021484 517.55188 415.35376 519.624023 C 397.222504 520.846588 382.385956 523.312439 370.243195 525.529633 C 342.144928 530.668549 309.363617 538.874237 284.953766 547.411469 C 260.543915 555.9487 236.610657 567.718475 223.597595 575.634064 Z M 223.597595 575.634064 " transform="matrix(0.188513,0,0,0.188513,-20.830633,-20.830633)"/>
<path style="fill-rule:nonzero;fill:rgb(0%,0%,0%);fill-opacity:1;stroke-width:1;stroke-linecap:butt;stroke-linejoin:miter;stroke:rgb(0%,0%,0%);stroke-opacity:1;stroke-miterlimit:4;" d="M 572.049255 372.854095 C 562.393066 382.220184 556.922607 395.088196 556.881165 408.536407 C 556.922607 421.508026 562.020081 433.961609 571.075348 443.244812 C 574.763763 431.350708 576.670135 418.980011 576.690857 406.526428 C 576.690857 395.15036 575.116028 383.815735 572.049255 372.854095 Z M 572.049255 372.854095 " transform="matrix(0.188513,0,0,0.188513,-20.830633,-20.830633)"/>
</g>
</svg>
